# Blender 3.4.1
# www.blender.org
o Cube
v -0.707914 -0.966566 0.886118
v -0.775989 0.746757 1.029948
v -0.929077 -0.832546 -0.815035
v -0.997152 0.880778 -0.671206
v 0.997152 -0.880778 0.671206
v 0.929077 0.832546 0.815035
v 0.775989 -0.746757 -1.029948
v 0.707914 0.966566 -0.886118
vn -0.9909 -0.0499 0.1249
vn -0.1285 0.0779 -0.9886
vn 0.9909 0.0499 -0.1249
vn 0.1285 -0.0779 0.9886
vn 0.0396 -0.9957 -0.0836
vn -0.0396 0.9957 0.0836
s 0
f 1//1 2//1 4//1 3//1
f 3//2 4//2 8//2 7//2
f 7//3 8//3 6//3 5//3
f 5//4 6//4 2//4 1//4
f 3//5 7//5 5//5 1//5
f 8//6 4//6 2//6 6//6
